<?xml version="1.0" encoding="UTF-8"?>
<svg id="Calque_1" xmlns="http://www.w3.org/2000/svg" width="215.9mm" height="279.4mm" version="1.1" viewBox="0 0 612 792">
  <!-- Generator: Adobe Illustrator 29.0.0, SVG Export Plug-In . SVG Version: 2.1.0 Build 186)  -->
  <path d="M346.5,383l15.9,24.4,14.1,21.6,18.2,27.9,23.2,35.6,16.3,25.1,17.9,27.4,11.2,17.2,14.4,22.1,7.7,11.8,11.7,18h-96l-7.4-11.5-8.6-13.5-14.5-22.7-19.8-31-18.8-29.5-12.8-20.1-10.8-16.9-12.5-19.6-10.5,16.4-11.1,17.3-14.3,22.4-14.5,22.7-10.6,16.5-9.9,15.4-13.2,20.6-10.2,15.9-11.2,17.4h-96l7.1-10.9,6.2-9.5,15.7-24.2,12.5-19.3,14.6-22.6,14.3-22.1,14.4-22.1,15.7-24.2,12.1-18.6,12.2-18.9,10.4-16,14.7-22.7-8.7-13.4-11.6-17.9-9.1-14-8.6-13.3-11.2-17.2-7.4-11.4-12.1-18.6-4.2-6.5-8.3-12.8-6.2-9.5-9.1-14-6.6-10.2-13.7-21.2-8.9-13.7-5.8-8.9h96l6.8,10.8,7.1,11.3,13.6,21.5,16.9,26.7,12.1,19.1,12.8,20.1,6.7,10.6,10.7,16.9,7.2-11.4,7.1-11.2,15.8-24.9,11.1-17.5,7.8-12.3,8.7-13.7,7.4-11.7,12.1-19.1,9.7-15.3h96l-8.6,13.1-17.7,27.2-12.7,19.5-17.3,26.6-9.3,14.3-8.8,13.5-14.1,21.6-18.4,28.3-13,20-12,18.4Z"/>
</svg>